<?xml version="1.0" encoding="iso-8859-1"?>
<!-- Generator: Adobe Illustrator 19.0.0, SVG Export Plug-In . SVG Version: 6.00 Build 0)  -->
<svg version="1.1" id="Capa_1" xmlns="http://www.w3.org/2000/svg" xmlns:xlink="http://www.w3.org/1999/xlink" x="0px" y="0px"
	 viewBox="0 0 464 464" style="enable-background:new 0 0 464 464;" xml:space="preserve">
<path style="fill:#F2705B;" d="M400,288H64c-35.346,0-64-28.654-64-64v-80h408l56,56v24C464,259.346,435.346,288,400,288z"/>
	<path style="fill:#B11E48;" d="M104,144H0V40h40L104,144z"/>
	<g>
	<path style="fill:#FDBD40;" d="M208,448h-64V240h160L208,448z"/>
		<path style="fill:#FDBD40;" d="M208,16h-64v128h144L208,16z"/>
</g>
	<g>
	<path style="fill:#F4F4E6;" d="M80,176h64v32H80V176z"/>
		<path style="fill:#F4F4E6;" d="M176,176h64v32h-64V176z"/>
		<path style="fill:#F4F4E6;" d="M272,176h64v32h-64V176z"/>
		<path style="fill:#F4F4E6;" d="M384,208h80v-8l-24-24h-56V208z"/>
</g>
	<g style="transform-origin: top right; ">
	<animateTransform attributeName="transform" begin="0s" type="scale" dur="0.5s" values="1;.96;1" repeatCount="indefinite"/>
		<path style="fill:#AABECE;" d="M56,16h64v16H56V16z"/>
		<path style="fill:#AABECE;" d="M88,48h32v16H88V48z"/>
</g>
	<g style="transform-origin: bottom right; ">
	<animateTransform attributeName="transform" begin="0s" type="scale" dur="0.5s" values="1;.96;1" repeatCount="indefinite"/>
		<path style="fill:#AABECE;" d="M56,392h64v16H56V392z"/>
		<path style="fill:#AABECE;" d="M88,424h32v16H88V424z"/>
</g>
</svg>
