<svg height="512" viewBox="0 0 60 60" width="512" xmlns="http://www.w3.org/2000/svg">
    <g id="Page-1" fill="none" fill-rule="evenodd">
        <g id="021---Planet" fill-rule="nonzero">
            <path id="Shape" d="m50.51 50.51c-1.340147 1.342813-2.8107428 2.5487686-4.39 3.6.0140215-2.8540312-1.8897251-5.3620224-4.6424214-6.1159149-2.7526963-.7538924-5.6686774.4340999-7.1108271 2.8970036-1.4421497 2.4629038-1.0512451 5.5872381.9532485 7.6189113-6.2213492 1.160958-12.6516908.2548804-18.31-2.58 6.79-2.7 15.04-8.36 22.8-16.12s13.42-16.01 16.12-22.8c5.5975089 11.1684564 3.413666 24.6663784-5.42 33.5z" fill="#e91e63"/>
            <path id="Shape" d="m55.93 17.01c-.441 1.11-.969 2.261-1.565 3.44 3.6784349 10.5049267 1.0140864 22.1884153-6.855 30.06-.557.557-1.134 1.078-1.722 1.578.2180892.6519077.3301802 1.3345822.332 2.022 1.5792572-1.0512314 3.049853-2.257187 4.39-3.6 8.833666-8.8336216 11.0175089-22.3315436 5.42-33.5z" fill="#ad1457"/>
            <path id="Shape" d="m46.12 54.11c-3.2604848 2.191185-6.9365428 3.6888382-10.8 4.4-2.0014547-2.0317127-2.3904443-5.1537214-.9487283-7.6144392 1.4417161-2.4607177 4.3553403-3.6477498 7.1061988-2.895118 2.7508585.7526319 4.6543496 3.2576215 4.6425295 6.1095572z" fill="#ad1457"/>
            <path id="Shape" d="m55.92 17 .01.01c-2.7 6.79-8.36 15.04-16.12 22.8s-16.01 13.42-22.8 16.12l-.01-.01c-5.71 2.26-10.38 2.42-12.86-.06s-2.32-7.15-.06-12.86c1.097135 2.2082111 2.47522991 4.2652699 4.1 6.12.74062437.8656804 1.9674864 1.1315005 3 .65 8.3225571-4.1002824 15.8924478-9.5773806 22.39-16.2 6.6226194-6.4975522 12.0997176-14.0674429 16.2-22.39.4815005-1.0325136.2156804-2.25937563-.65-3-1.8547301-1.62477009-3.9117889-3.002865-6.12-4.1 5.71-2.26 10.38-2.42 12.86.06s2.32 7.15.06 12.86z" fill="#ffdc00"/>
            <path id="Shape" d="m55.86 4.14c-1.51-1.51-3.835-2.04-6.709-1.711 1.3913539.14510801 2.6955303.74673805 3.709 1.711 2.48 2.48 2.32 7.15.06 12.86l.01.01c-2.7 6.79-8.36 15.04-16.12 22.8s-16.01 13.42-22.8 16.12l-.01-.01c-1.969928.8151387-4.03766446 1.3701433-6.151 1.651 2.468.343 5.609-.249 9.151-1.651l.01.01c6.79-2.7 15.04-8.36 22.8-16.12s13.42-16.01 16.12-22.8l-.01-.01c2.26-5.71 2.42-10.38-.06-12.86z" fill="#fec108"/>
            <path id="Shape" d="m35.35 13.95c-3.4209147 3.4217186-8.635249 4.2977993-12.9865568 2.1819223-4.3513079-2.115877-6.8822528-6.75819509-6.3034432-11.5619223 6.7132858-3.68519997 14.6136302-4.55902051 21.97-2.43 1.4541431 4.12436597.4118967 8.7172502-2.68 11.81z" fill="#ad1457"/>
            <path id="Shape" d="m49.77 11.18c-4.1002824 8.3225571-9.5773806 15.8924478-16.2 22.39-6.4975522 6.6226194-14.0674429 12.0997176-22.39 16.2-1.0325136.4815005-2.25937563.2156804-3-.65-1.62477009-1.8547301-3.002865-3.9117889-4.1-6.12l-.01-.01c-5.59750888-11.1684564-3.41366598-24.6663784 5.42-33.5 1.9411306-1.94842101 4.154075-3.60560315 6.57-4.92-.5563264 4.64792334 1.7981673 9.1605617 5.9287429 11.3630683 4.1305756 2.2025067 9.1896699 1.6429437 12.7390739-1.40901 3.5494041-3.0519536 4.8608068-7.97005979 3.3021832-12.3840583 1.7117896.48162035 3.3728845 1.12797381 4.96 1.93l.01.01c2.2082111 1.097135 4.2652699 2.47522991 6.12 4.1.8656804.74062437 1.1315005 1.9674864.65 3z" fill="#e91e63"/>
            <circle id="Oval" cx="9.487" cy="34.459" fill="#ad1457" r="2.523"/>
            <circle id="Oval" cx="50.513" cy="38.027" fill="#ad1457" r="2.523"/>
            <circle id="Oval" cx="24.649" cy="28.216" fill="#ad1457" r="3.784"/>
            <g fill="#000">
                <path id="Shape" d="m27 13c3.8641657-.0044086 6.9955914-3.13583434 7-7 0-.55228475-.4477153-1-1-1s-1 .44771525-1 1c-.0033061 2.76005315-2.2399468 4.9966939-5 5-.5522847 0-1 .4477153-1 1s.4477153 1 1 1z"/>
                <path id="Shape" d="m56.571 3.429c-2.66-2.661-7.334-2.803-13.527-.429-11.4869622-5.56410376-25.2374538-3.2439136-34.26268368 5.78131632-9.02522992 9.02522988-11.34542008 22.77572148-5.78131632 34.26268368-2.374 6.192-2.232 10.866.429 13.527 1.57800073 1.4690701 3.68630676 2.2320177 5.839 2.113 2.6391634-.0973378 5.2394127-.6677195 7.677-1.684 11.4873284 5.5657237 25.2391317 3.2471791 34.2665589-5.7773183 9.0274272-9.0244973 11.3504356-22.7755472 5.7884411-34.2646817 2.375-6.193 2.232-10.868-.429-13.529zm-19.354-.47c1.3727496 4.54018765-.5215055 9.4319362-4.5939771 11.8635449-4.0724715 2.4316087-9.277379 1.7786586-12.6230229-1.5835449-2.1265126-2.1183576-3.2175218-5.06243784-2.985-8.055 6.2152081-3.25373457 13.4276421-4.04809482 20.202-2.225zm-27.023 7.235c1.4568482-1.45062908 3.0684956-2.73699595 4.806-3.836.0930178 3.1239577 1.3782873 6.0938178 3.592 8.3 3.8253999 3.828946 9.6988179 4.7195604 14.4873592 2.1967876 4.7885414-2.5227729 7.37536-7.87053903 6.3806408-13.1907876 1.0287933.36331759 2.035505.78637024 3.015 1.267.0103244.00658919.0210076.01259848.032.018l.015.009.038.021c2.1302802 1.05616661 4.1136813 2.38571765 5.9 3.955.5284764.44639819.6941627 1.1905546.405 1.819-4.0552352 8.2157746-9.4659968 15.6894208-16.005 22.107-6.4175011 6.5393596-13.8911519 11.9504626-22.107 16.006-.6284835.2888042-1.37241519.123168-1.819-.405-1.56906533-1.7864857-2.89859654-3.7698571-3.955-5.9-.014-.0273333-.029-.0543333-.045-.081-5.3847795-10.7714178-3.2653054-23.7807981 5.26-32.286zm-5.351 44.963c-1.814-1.814-2-5.227-.567-9.726.91701381 1.5424838 1.97271447 2.9981725 3.154 4.349 1.0305419 1.2039391 2.7378368 1.5721551 4.173.9 8.4245615-4.1543962 16.0888596-9.6986813 22.671-16.4 6.7028532-6.5846911 12.2478622-14.2520977 16.402-22.68.6721551-1.4351632.3039391-3.1424581-.9-4.173-1.3508275-1.18128553-2.8065162-2.23698619-4.349-3.154 4.5-1.432 7.912-1.247 9.726.567 2.081 2.081 2.021 6.266-.169 11.784-.0185808.0467157-.0332969.0948773-.044.144-2.76 6.894-8.526 15.025-15.84 22.332s-15.435 13.078-22.327 15.843c-.0497242.0113255-.098528.0263677-.146.045-5.518 2.191-9.703 2.251-11.784.169zm31.215-4.829c1.4491084-1.4622879 3.6156784-1.9495985 5.5513532-1.2486248 1.9356748.7009736 3.2878496 2.4625412 3.4646468 4.5136248-2.8617529 1.8317546-6.0342175 3.1250058-9.361 3.816-1.7091179-2.1024399-1.5604075-5.1546667.345-7.081zm13.748-.522c-.9103511.9031292-1.8812734 1.7430805-2.906 2.514-.689558-2.7750507-2.9358327-4.8919979-5.7468533-5.4159826s-5.6691495.6414825-7.3122169 2.9817232c-1.6430674 2.3402406-1.7685094 5.4243092-.3209298 7.8902594-4.7626922.6089773-9.6019466-.0209869-14.05-1.829 6.68-3.1 14.227-8.608 21.048-15.429s12.334-14.368 15.429-21.048c4.2503464 10.4258511 1.8296111 22.384071-6.141 30.336z"/>
                <path id="Shape" d="m11.979 36.95c1.3755222-1.375923 1.3753056-3.6063766-.0004838-4.9820325-1.3757894-1.3756558-3.60624304-1.3756558-4.98203244 0-1.37578941 1.3756559-1.37600599 3.6061095-.00048376 4.9820325 1.37681323 1.3740949 3.6061868 1.3740949 4.983 0zm-3.569-3.567c.43548066-.4358233 1.09064408-.5663444 1.6598973-.3306831.5692531.2356612.9404498.7910781.9404498 1.4071831s-.3711967 1.1715219-.9404498 1.4071831c-.56925322.2356613-1.22441664.1051402-1.6598973-.3306831-.59310326-.5951267-.59310326-1.5578733 0-2.153z"/>
                <path id="Shape" d="m53 35.536c-1.0075404-1.0076514-2.522876-1.3091354-3.8393785-.7638647s-2.1748959 1.8299089-2.1748959 3.2548647.8583934 2.709594 2.1748959 3.2548647 2.8318381.2437867 3.8393785-.7638647c1.3734297-1.376698 1.3734297-3.605302 0-4.982zm-1.41 3.564c-.5947908.5947064-1.5590618.5946608-2.1537963-.0001018-.5947346-.5947627-.5947346-1.5590337 0-2.1537964.5947345-.5947626 1.5590055-.5948082 2.1537963-.0001018.5932186.5954692.5932186 1.5585308 0 2.154z"/>
                <path id="Shape" d="m28.031 31.6c1.3683897-1.3681479 1.7778433-3.4258979 1.0374205-5.21366-.7404227-1.787762-2.4848962-2.9534377-4.4199205-2.9534377s-3.6794978 1.1656757-4.4199205 2.9534377c-.7404228 1.7877621-.3309692 3.8455121 1.0374205 5.21366 1.8695677 1.8645642 4.8954323 1.8645642 6.765 0zm-5.351-5.352c.7961994-.7962684 1.9936664-1.0344999 3.0340055-.6036037s1.7186651 1.4460589 1.7186651 2.5721037-.678326 2.1412075-1.7186651 2.5721037-2.2378061.1926647-3.0340055-.6036037c-1.0860029-1.0876568-1.0860029-2.8493432 0-3.937z"/>
            </g>
        </g>
    </g>
</svg>
