<?xml version="1.0" encoding="iso-8859-1"?>
<!-- Generator: Adobe Illustrator 19.0.0, SVG Export Plug-In . SVG Version: 6.00 Build 0)  -->
<svg version="1.1" id="Capa_1" xmlns="http://www.w3.org/2000/svg" xmlns:xlink="http://www.w3.org/1999/xlink" x="0px" y="0px"
	 viewBox="0 0 508.1 508.1" style="enable-background:new 0 0 508.1 508.1;" xml:space="preserve">

<path style="fill:#41596B;" d="M305.45,202.6c-42.8-42.8-101.7-59.5-157.1-50.2c-35.6,6-69.7,22.7-97.1,50.2
	c-29.4,29.4-46.4,66.5-51.2,104.8c2.2-2.6,4.6-5.3,7.2-7.8c25.1-25.1,57.2-38.8,90.1-41.2c39.8-3,80.7,10.8,111.2,41.2
	s44.2,71.3,41.2,111.2c-2.4,32.8-16.1,65-41.2,90.1c-2.5,2.5-5.2,4.9-7.8,7.2c38.3-4.8,75.4-21.8,104.8-51.2
	c27.5-27.5,44.2-61.6,50.2-97.1C364.95,304.3,348.15,245.3,305.45,202.6z"/>
<path style="fill:#F2705B;" d="M459.95,0c-24.9,0-49.3,2.5-72.8,7.2c-143.7,28.9-257,141.7-286.8,285.1l115.5,115.5
	c143.3-29.9,256.2-143.1,285-286.8c4.7-23.5,7.2-47.9,7.2-72.8V0H459.95z"/>
<path style="fill:#FFFFFF;" d="M397.55,110.5c-31.4-31.4-82.3-31.4-113.7,0c-15.7,15.7-23.6,36.3-23.5,56.9
	c0.1,20.5,7.9,41.1,23.5,56.7c15.6,15.6,36.1,23.5,56.6,23.6c20.7,0.1,41.3-7.8,57-23.6C428.95,192.8,428.95,141.9,397.55,110.5z"/>
<circle style="fill:#89D6F7;" cx="340.75" cy="167.3" r="53.5"/>
<path style="fill:#334A5E;" d="M500.85,120.9L387.15,7.2c23.5-4.7,47.8-7.2,72.8-7.2h48.1v48.1C508.05,73,505.55,97.4,500.85,120.9z
	"/>
</svg>
