<?xml version="1.0" standalone="no"?>
<!DOCTYPE svg PUBLIC "-//W3C//DTD SVG 20010904//EN"
 "http://www.w3.org/TR/2001/REC-SVG-20010904/DTD/svg10.dtd">
<svg version="1.0" xmlns="http://www.w3.org/2000/svg"
 width="512.000000pt" height="512.000000pt" viewBox="0 0 512.000000 512.000000"
 preserveAspectRatio="xMidYMid meet">
<metadata>
Created by potrace 1.11, written by Peter Selinger 2001-2013
</metadata>
<g transform="translate(0.000000,512.000000) scale(0.100000,-0.100000)"
fill="#000000" stroke="none">
<path d="M2336 4872 c-2 -1 -84 -18 -182 -38 -98 -19 -188 -37 -199 -40 -11
-2 -31 -6 -45 -8 -14 -3 -79 -16 -145 -30 -66 -14 -136 -28 -155 -31 -19 -3
-55 -11 -80 -16 -25 -6 -56 -13 -70 -15 -14 -2 -36 -7 -50 -10 -14 -3 -36 -8
-50 -11 -22 -4 -539 -108 -665 -134 -27 -6 -61 -12 -75 -15 -258 -50 -280 -57
-321 -101 -73 -77 -72 -111 9 -504 34 -163 64 -309 67 -325 7 -42 14 -75 20
-104 7 -30 14 -62 19 -92 2 -13 7 -34 10 -48 3 -14 8 -36 10 -50 2 -14 21
-106 41 -205 20 -99 39 -189 41 -200 2 -11 11 -54 19 -95 8 -41 17 -84 19 -95
2 -11 25 -123 51 -250 26 -126 49 -242 52 -258 2 -15 18 -91 34 -170 16 -78
39 -189 50 -247 12 -58 22 -112 24 -120 13 -60 85 -420 89 -440 2 -14 7 -36
10 -50 3 -14 8 -37 11 -52 3 -16 7 -39 10 -52 3 -13 14 -67 25 -120 28 -139
54 -179 134 -216 51 -24 90 -21 310 25 99 20 189 39 200 41 138 28 151 29 187
2 19 -14 43 -28 54 -30 11 -3 63 -17 115 -31 213 -58 783 -210 890 -238 63
-17 129 -34 146 -40 17 -5 40 -11 50 -14 10 -2 62 -16 114 -30 52 -15 127 -35
165 -45 39 -10 166 -44 283 -75 231 -62 268 -64 333 -26 19 11 45 34 58 51 24
33 38 83 176 600 19 73 53 196 65 240 6 19 23 85 39 145 60 224 82 308 171
640 51 187 93 347 95 355 4 17 93 351 130 485 43 159 48 180 50 190 2 6 13 46
25 90 46 167 162 601 167 625 16 78 14 111 -7 155 -44 90 -38 88 -550 224
-168 45 -347 93 -397 107 -51 14 -101 27 -110 29 -10 2 -70 18 -133 35 -63 17
-171 46 -240 64 -69 19 -170 46 -225 61 -55 15 -107 28 -115 30 -8 3 -42 12
-75 21 -33 9 -67 18 -75 20 -8 2 -51 13 -95 24 -48 12 -96 19 -120 15 -22 -2
-49 -6 -59 -7 -20 -3 -25 10 -40 97 -6 32 -22 116 -30 150 -16 73 -73 138
-136 155 -33 9 -116 11 -124 2z"/>
</g>
</svg>
