<?xml version="1.0" encoding="iso-8859-1"?>
<!-- Generator: Adobe Illustrator 19.0.0, SVG Export Plug-In . SVG Version: 6.00 Build 0)  -->
<svg version="1.1" id="Capa_1" xmlns="http://www.w3.org/2000/svg" xmlns:xlink="http://www.w3.org/1999/xlink" x="0px" y="0px"
	 viewBox="0 0 508.1 508.1" style="enable-background:new 0 0 508.1 508.1;" xml:space="preserve">

<g id="fire">
	<g style="transform-origin: center; ">
		<animateTransform attributeName="transform" begin="0s" type="scale" dur="0.3s" values="1;.95;1" repeatCount="indefinite"/>

	<path style="fill:#F6B44B;" d="M150.15,483.1c0,0,11.5-10.4,10.9-32.8c0,0-49.7,46.8-86.5,50.8c0,0-2.9-10.9,6.9-33.9
		c0,0-37.7,7.1-54.7,13.9c6.9-16.8,14-54.5,14-54.5c-22.9,9.9-33.9,6.9-33.9,6.9c4-36.8,50.8-86.5,50.8-86.5
		c-22.4-0.5-32.8,10.9-32.8,10.9c-11.6-65.2,75.5-65.6,75.5-65.6l115.3,115.3C215.75,407.7,215.25,494.6,150.15,483.1z"/>
	</g>

	<g style="transform-origin: center; ">
		<animateTransform attributeName="transform" begin="0s" type="scale" dur="0.1s" from="1" to=".75" repeatCount="indefinite"/>

		<path style="fill:#FFD15C;" d="M103.65,295.6c-13.8,0.9-41.2,5.7-54.1,21.2c-3.8,4.5-6.1,9.7-7.1,15.6c6.1-2.1,13.7-3.7,23-3.5
			l23.7,0.6l-16.2,17.3c-10.6,11.2-36.1,42.2-45,68c4.2-0.9,9.6-2.5,16.2-5.4l18.2-7.8l-3.7,19.5c-0.2,1.1-3.7,19.4-8.2,36.5
			c17-4.5,35.4-7.9,36.5-8.1l19.5-3.7l-7.8,18.2c-2.8,6.6-4.5,12-5.4,16.2c25.8-9,56.8-34.5,68-45l17.3-16.2l0.6,23.7
			c0.2,9.3-1.3,16.9-3.4,23c5.9-1,11-3.3,15.5-7.1c16.8-14,20.4-43.2,21.2-54.2L103.65,295.6z"/>
	</g>
</g>
<path style="fill:#41596B;" d="M305.45,202.6c-42.8-42.8-101.7-59.5-157.1-50.2c-35.6,6-69.7,22.7-97.1,50.2
	c-29.4,29.4-46.4,66.5-51.2,104.8c2.2-2.6,4.6-5.3,7.2-7.8c25.1-25.1,57.2-38.8,90.1-41.2c39.8-3,80.7,10.8,111.2,41.2
	s44.2,71.3,41.2,111.2c-2.4,32.8-16.1,65-41.2,90.1c-2.5,2.5-5.2,4.9-7.8,7.2c38.3-4.8,75.4-21.8,104.8-51.2
	c27.5-27.5,44.2-61.6,50.2-97.1C364.95,304.3,348.15,245.3,305.45,202.6z"/>
<path style="fill:#F2705B;" d="M459.95,0c-24.9,0-49.3,2.5-72.8,7.2c-143.7,28.9-257,141.7-286.8,285.1l115.5,115.5
	c143.3-29.9,256.2-143.1,285-286.8c4.7-23.5,7.2-47.9,7.2-72.8V0H459.95z"/>
<path style="fill:#FFFFFF;" d="M397.55,110.5c-31.4-31.4-82.3-31.4-113.7,0c-15.7,15.7-23.6,36.3-23.5,56.9
	c0.1,20.5,7.9,41.1,23.5,56.7c15.6,15.6,36.1,23.5,56.6,23.6c20.7,0.1,41.3-7.8,57-23.6C428.95,192.8,428.95,141.9,397.55,110.5z"/>
<circle style="fill:#89D6F7;" cx="340.75" cy="167.3" r="53.5"/>
<path style="fill:#334A5E;" d="M500.85,120.9L387.15,7.2c23.5-4.7,47.8-7.2,72.8-7.2h48.1v48.1C508.05,73,505.55,97.4,500.85,120.9z
	"/>
</svg>
